#!OML:ASF X:\für Bonn\!DataBase\2005_08_12_Daniel\c3d\Daniel.ASF
:FULLY-SPECIFIED
:DEGREES
63
root 4.4967 15.1257 -5.34322 -1088.84 23.1874 1.396
lowerback 53.6856 -5.2749 2.62279
upperback 12.7395 -4.39297 -2.33812
thorax -6.96981 -1.55666 -1.90209
lowerneck 4.87821 3.30686 -2.64888
upperneck 11.7568 4.4284 -0.85954
head 2.87148 2.05617 0.215954
rclavicle -1.23246e-014 -1.39149e-014
rhumerus -26.7718 4.25978 -85.7926
rradius 37.1291
rwrist 12.3279
rhand -15.7832 -341.8
rfingers 7.12502
rthumb 10.4093 -371.522
lclavicle -1.23246e-014 -1.39149e-014
lhumerus -729.962 -1.89172 -642.219
lradius 52.6853
lwrist -7.16294
lhand -17.9639 353.512
lfingers 7.12502
lthumb 8.3052 383.329
rfemur 317.937 -16.0235 385.151
rtibia 57.5398
rfoot -12.5117 -9.13121
rtoes 10.6638
lfemur -13.5202 13.3797 -7.33382
ltibia 87.81
lfoot -2.04847 -6.77366
ltoes -8.21766
64
root 4.54259 15.0752 -5.26455 -1089 22.5828 1.24929
lowerback 54.5353 -5.24598 2.50258
upperback 12.7599 -4.38658 -2.35001
thorax -7.01572 -1.54886 -1.85415
lowerneck 5.05328 3.50077 -2.59635
upperneck 11.4669 4.67438 -0.944172
head 2.74331 2.17992 0.17468
rclavicle -4.45278e-014 3.33958e-014
rhumerus -26.6535 4.79777 -85.7287
rradius 37.8306
rwrist 12.1756
rhand -15.6587 -341.559
rfingers 7.12502
rthumb 10.5294 -371.276
lclavicle -4.45278e-014 3.33958e-014
lhumerus -729.514 -2.30157 -642.484
lradius 52.5175
lwrist -7.08942
lhand -17.9987 353.592
lfingers 7.12502
lthumb 8.27156 383.41
rfemur 317.638 -16.1332 385.43
rtibia 58.6587
rfoot -12.8307 -8.45663
rtoes 10.4885
lfemur -14.5927 13.1056 -7.2138
ltibia 89.5558
lfoot -0.623716 -7.33223
ltoes -7.16003
65
root 4.58906 15.0274 -5.1875 -1089.16 21.9648 1.08875
lowerback 55.3935 -5.21096 2.37691
upperback 12.7799 -4.37783 -2.35423
thorax -7.05416 -1.54097 -1.79781
lowerneck 5.16291 3.70024 -2.57548
upperneck 11.1858 4.93349 -1.08152
head 2.63156 2.3074 0.123183
rclavicle -6.36111e-015 3.73715e-014
rhumerus -26.514 5.35839 -85.6523
rradius 38.5009
rwrist 11.9015
rhand -15.4895 -341.257
rfingers 7.12502
rthumb 10.6926 -370.965
lclavicle -6.36111e-015 3.73715e-014
lhumerus -729.004 -2.75165 -642.775
lradius 52.3325
lwrist -6.97304
lhand -18.0809 353.67
lfingers 7.12502
lthumb 8.19223 383.491
rfemur 317.357 -16.2572 385.721
rtibia 59.7403
rfoot -13.1624 -7.74928
rtoes 10.3164
lfemur -15.6771 12.7853 -7.12432
ltibia 91.2205
lfoot 0.321579 -8.19508
ltoes -6.32404
66
root 4.63776 14.9786 -5.11212 -1089.28 21.3386 0.943913
lowerback 56.2604 -5.18328 2.24441
upperback 12.7748 -4.38793 -2.37621
thorax -7.11618 -1.54155 -1.75036
lowerneck 5.13549 3.92107 -2.61613
upperneck 11.0357 5.22324 -1.17231
head 2.58594 2.44622 0.101327
rclavicle -4.77083e-015 6.36111e-015
rhumerus -26.3699 5.95951 -85.5952
rradius 39.1263
rwrist 11.4167
rhand -15.3033 -340.99
rfingers 7.12502
rthumb 10.8722 -370.688
lclavicle -4.77083e-015 6.36111e-015
lhumerus -728.484 -3.15142 -643.095
lradius 52.1298
lwrist -6.99074
lhand -18.1887 353.812
lfingers 7.12502
lthumb 8.08817 383.637
rfemur 317.057 -16.3816 385.984
rtibia 60.7985
rfoot -13.4838 -7.05668
rtoes 10.2929
lfemur -16.7688 12.3855 -7.14198
ltibia 92.7571
lfoot 0.71427 -9.33269
ltoes -5.80599
67
root 4.68773 14.9303 -5.03901 -1089.38 20.6882 0.803663
lowerback 57.091 -5.14839 2.0919
upperback 12.7875 -4.4086 -2.41789
thorax -7.15045 -1.54673 -1.71326
lowerneck 5.0869 4.16593 -2.6944
upperneck 10.8581 5.54146 -1.23976
head 2.53314 2.5986 0.0931548
rclavicle -3.57812e-015 -3.37934e-014
rhumerus -26.2321 6.55519 -85.5808
rradius 39.7657
rwrist 10.7711
rhand -15.1159 -340.719
rfingers 7.12502
rthumb 11.053 -370.408
lclavicle -3.57812e-015 -3.37934e-014
lhumerus -727.87 -3.40707 -643.44
lradius 51.8342
lwrist -7.12492
lhand -18.3106 353.886
lfingers 7.12502
lthumb 7.97058 383.716
rfemur 316.735 -16.4949 386.245
rtibia 61.8288
rfoot -13.7943 -6.34609
rtoes 10.2244
lfemur -17.8246 11.9387 -7.25633
ltibia 94.0955
lfoot 0.726478 -10.6401
ltoes -5.32824
68
root 4.73952 14.8795 -4.9692 -1089.47 20.0298 0.643899
lowerback 57.9335 -5.11804 1.96262
upperback 12.7723 -4.42635 -2.45916
thorax -7.21027 -1.55084 -1.68798
lowerneck 5.08896 4.42013 -2.82447
upperneck 10.6598 5.86766 -1.30537
head 2.4632 2.754 0.0922741
rclavicle 7.55382e-015 -3.57812e-015
rhumerus -26.1159 7.21762 -85.5549
rradius 40.4067
rwrist 9.82877
rhand -14.8555 -340.527
rfingers 7.12502
rthumb 11.3042 -370.202
lclavicle 7.55382e-015 -3.57812e-015
lhumerus -727.274 -3.57389 -643.754
lradius 51.5579
lwrist -7.39943
lhand -18.3633 354.019
lfingers 7.12502
lthumb 7.91971 383.851
rfemur 316.388 -16.6273 386.517
rtibia 62.8478
rfoot -14.1158 -5.60782
rtoes 10.1219
lfemur -18.8792 11.4206 -7.44808
ltibia 95.2705
lfoot 0.446956 -12.0331
ltoes -4.84444
